<svg width="38" height="46" viewBox="0 0 38 46" fill="none" xmlns="http://www.w3.org/2000/svg">
<path d="M16.9819 23.0296L0.836926 7.33415C-0.278975 6.24932 -0.278975 4.49512 0.836926 3.42183L3.51984 0.813623C4.63574 -0.271208 6.44018 -0.271208 7.5442 0.813623L18.9881 11.9389L30.432 0.813623C31.548 -0.271208 33.3524 -0.271208 34.4564 0.813623L37.1631 3.41029C38.279 4.49512 38.279 6.24932 37.1631 7.32261L21.0181 23.018C19.9022 24.1144 18.0978 24.1144 16.9819 23.0296ZM21.0181 45.1878L37.1631 29.4924C38.279 28.4076 38.279 26.6534 37.1631 25.5801L34.4802 22.9719C33.3643 21.887 31.5598 21.887 30.4558 22.9719L19 34.0856L7.55608 22.9603C6.44017 21.8755 4.63574 21.8755 3.53171 22.9603L0.836926 25.5685C-0.278975 26.6534 -0.278975 28.4076 0.836926 29.4809L16.9819 45.1763C18.0978 46.2726 19.9022 46.2726 21.0181 45.1878Z" fill="white"/>
</svg>
