<svg width="42" height="32" viewBox="0 0 42 32" fill="none" xmlns="http://www.w3.org/2000/svg">
<path d="M41.2043 10.5667C41.5242 10.3083 42 10.55 42 10.9583V28C42 30.2083 40.2363 32 38.0625 32H3.9375C1.76367 32 0 30.2083 0 28V10.9667C0 10.55 0.467578 10.3167 0.795703 10.575C2.6332 12.025 5.06953 13.8667 13.4367 20.0417C15.1676 21.325 18.0879 24.025 21 24.0083C23.9285 24.0333 26.9062 21.275 28.5715 20.0417C36.9387 13.8667 39.3668 12.0167 41.2043 10.5667ZM21 21.3333C22.9031 21.3667 25.643 18.9 27.0211 17.8833C37.9066 9.85833 38.7352 9.15833 41.2453 7.15833C41.7211 6.78333 42 6.2 42 5.58333V4C42 1.79167 40.2363 0 38.0625 0H3.9375C1.76367 0 0 1.79167 0 4V5.58333C0 6.2 0.278906 6.775 0.754687 7.15833C3.26484 9.15 4.09336 9.85833 14.9789 17.8833C16.357 18.9 19.0969 21.3667 21 21.3333Z" fill="white"/>
</svg>
