<svg width="42" height="42" viewBox="0 0 42 42" fill="none" xmlns="http://www.w3.org/2000/svg">
<path d="M40.8022 29.6787L31.6146 25.7411C31.2221 25.5738 30.7859 25.5386 30.3716 25.6407C29.9574 25.7428 29.5875 25.9767 29.3177 26.3071L25.2488 31.2783C18.8632 28.2676 13.7242 23.1286 10.7135 16.743L15.6846 12.6741C16.0158 12.4048 16.2502 12.0349 16.3523 11.6205C16.4544 11.206 16.4188 10.7696 16.2507 10.3772L12.3131 1.18955C12.1286 0.766597 11.8023 0.42127 11.3905 0.213114C10.9787 0.004959 10.5072 -0.0529771 10.0572 0.0492961L1.52581 2.01808C1.09199 2.11826 0.704944 2.36252 0.427829 2.711C0.150715 3.05948 -9.9933e-05 3.4916 4.96807e-08 3.93683C4.96807e-08 24.9782 17.0546 42 38.0632 42C38.5085 42.0003 38.9408 41.8496 39.2895 41.5724C39.6381 41.2953 39.8825 40.9081 39.9827 40.4742L41.9515 31.9428C42.0531 31.4906 41.994 31.0172 41.7842 30.604C41.5744 30.1907 41.2272 29.8635 40.8022 29.6787Z" fill="white"/>
</svg>
