<svg width="32" height="42" viewBox="0 0 32 42" fill="none" xmlns="http://www.w3.org/2000/svg">
<path d="M14.3557 41.1526C2.2475 23.8736 0 22.1003 0 15.75C0 7.05149 7.16342 0 16 0C24.8366 0 32 7.05149 32 15.75C32 22.1003 29.7525 23.8736 17.6443 41.1526C16.8498 42.2825 15.1502 42.2824 14.3557 41.1526ZM16 22.3125C19.6819 22.3125 22.6667 19.3744 22.6667 15.75C22.6667 12.1256 19.6819 9.1875 16 9.1875C12.3181 9.1875 9.33333 12.1256 9.33333 15.75C9.33333 19.3744 12.3181 22.3125 16 22.3125Z" fill="white"/>
</svg>
